
<svg width="125px" height="66px" viewBox="0 0 125 66" version="1.1" xmlns="http://www.w3.org/2000/svg" xmlns:xlink="http://www.w3.org/1999/xlink">
    <defs>
        <polygon id="path-d8p4nm7rrs-1" points="0 0 4.92922144 0 4.92922144 5.78840846 0 5.78840846"></polygon>
        <polygon id="path-d8p4nm7rrs-3" points="0 0 4.52325056 0 4.52325056 5.78840846 0 5.78840846"></polygon>
        <polygon id="path-d8p4nm7rrs-5" points="0 0 2.68851173 0 2.68851173 4.39443422 0 4.39443422"></polygon>
    </defs>
    <g id="Page-1" stroke="none" stroke-width="1" fill="none" fill-rule="evenodd">
        <g id="Artboard" transform="translate(-24.000000, -630.000000)">
            <g id="THC" transform="translate(24.000000, 630.000000)">
                <line x1="12.5" y1="21" x2="12.5" y2="32" id="Stroke-1" stroke="#FFFFFF" stroke-width="0.6" stroke-linecap="round"></line>
                <line x1="12" y1="32" x2="23" y2="38" id="Stroke-2" stroke="#FFFFFF" stroke-width="0.6" stroke-linecap="round"></line>
                <line x1="22" y1="38" x2="33" y2="32" id="Stroke-3" stroke="#FFFFFF" stroke-width="0.6" stroke-linecap="round"></line>
                <line x1="32.5" y1="32" x2="32.5" y2="21" id="Stroke-4" stroke="#FFFFFF" stroke-width="0.6" stroke-linecap="round"></line>
                <line x1="33" y1="21" x2="22" y2="15" id="Stroke-5" stroke="#FFFFFF" stroke-width="0.6" stroke-linecap="round"></line>
                <line x1="30" y1="22" x2="22" y2="18" id="Stroke-6" stroke="#FFFFFF" stroke-width="0.6" stroke-linecap="round"></line>
                <line x1="12" y1="21" x2="23" y2="15" id="Stroke-7" stroke="#FFFFFF" stroke-width="0.6" stroke-linecap="round"></line>
                <g id="Group-97">
                    <g id="Group-10" transform="translate(19.940510, 0.000000)">
                        <mask id="mask-d8p4nm7rrs-2" fill="white">
                            <use xlink:href="#path-d8p4nm7rrs-1"></use>
                        </mask>
                        <g id="Clip-9"></g>
                        <path d="M4.14361737,3.67003987 L4.92922144,3.84122968 C4.73801622,4.49057038 4.4977627,4.95691506 4.09456907,5.2908617 C3.65729104,5.64842073 3.20588044,5.78840846 2.63060211,5.78840846 C1.99463691,5.78840846 1.53906968,5.66613002 1.16247852,5.42241644 C0.758453564,5.22845753 0.501573501,4.82114382 0.305380314,4.35479914 C0.0892352771,3.94579883 0.0127531872,3.3892211 0.0127531872,2.85288255 C-0.0487650155,2.3342533 0.120825706,1.76080957 0.337802069,1.32819687 C0.523188004,0.906547071 0.862369447,0.565854033 1.26306909,0.339849739 C1.60058788,0.172876418 2.10270943,0 2.58155382,0 C3.1094465,0.0320453849 3.58579691,0.151793928 3.95823143,0.454538485 C4.26997908,0.776678933 4.58920867,1.17893284 4.73469091,1.72286109 L3.94908684,1.88140141 C3.77035152,1.54323827 3.65064042,1.23206072 3.4195315,1.0608709 C3.1676394,0.917509966 2.89662677,0.801134621 2.54580675,0.801134621 C2.13762516,0.8466728 1.80592566,0.896427476 1.53574437,1.08701319 C1.25059919,1.29952469 1.07518918,1.53564857 0.964622675,1.85778902 C0.82163442,2.22378105 0.79918859,2.50965961 0.79918859,2.84950935 C0.751802947,3.35970561 0.865694755,3.68015946 1.00036974,4.0090463 C1.08932174,4.36744864 1.34453914,4.58249003 1.63051565,4.74693346 C1.86910652,4.97631095 2.22408318,4.99064704 2.55578268,4.99064704 C2.94733772,5.04630481 3.29566376,4.88017479 3.57498966,4.658387 C3.85431555,4.46189819 4.0463521,4.10686906 4.14361737,3.67003987" id="Fill-8" fill="#FFFFFF" mask="url(#mask-d8p4nm7rrs-2)"></path>
                    </g>
                    <g id="Group-13" transform="translate(26.735562, 0.000000)">
                        <mask id="mask-d8p4nm7rrs-4" fill="white">
                            <use xlink:href="#path-d8p4nm7rrs-3"></use>
                        </mask>
                        <g id="Clip-12"></g>
                        <polygon id="Fill-11" fill="#FFFFFF" mask="url(#mask-d8p4nm7rrs-4)" points="0 5.78840846 0 0 0.785604075 0 0.785604075 2.19763876 3.73764648 2.19763876 3.73764648 0 4.52325056 0 4.52325056 5.78840846 3.73764648 5.78840846 3.73764648 2.99455688 0.785604075 2.99455688 0.785604075 5.78840846"></polygon>
                    </g>
                    <path d="M32.727767,6.49846673 L33.3254911,6.49846673 C33.3554189,6.7674793 33.4535155,6.86951855 33.5557687,6.96312481 C33.6280942,7.09636615 33.8226247,7.10479914 34.0529023,7.10479914 C34.2607341,7.16636001 34.5109635,7.02721558 34.6339999,6.87120515 C34.71547,6.78434529 34.8193859,6.52207912 34.8193859,6.29101503 C34.7844701,6.1257283 34.7512171,5.89297761 34.6148794,5.74793008 C34.4427947,5.62480834 34.3031318,5.53035879 34.0919747,5.53035879 C34.0046854,5.55481447 33.8974442,5.54975468 33.7702511,5.58938976 L33.8184681,5.13485127 C33.8010102,5.15340386 33.871673,5.13822447 33.8874682,5.13822447 C34.0479144,5.15340386 34.1958906,5.08846979 34.3255776,4.98643054 C34.44612,4.94848206 34.5201081,4.72500767 34.5201081,4.50912297 C34.5151202,4.35311254 34.4669032,4.20131861 34.3613247,4.09084637 C34.2341316,3.99133701 34.1185772,3.92302975 33.9523118,3.92302975 C33.7619379,3.99133701 33.6463834,3.96182153 33.5366482,4.03771849 C33.4028046,4.14228764 33.3554189,4.2257743 33.3254911,4.37756823 L32.727767,4.37756823 C32.7576948,4.09927936 32.9256228,3.78135541 33.1401052,3.5966728 C33.3254911,3.44656547 33.6206123,3.31669733 33.9390105,3.31669733 C34.138529,3.3757283 34.359662,3.36729531 34.5467106,3.46849126 C34.7187953,3.57643361 34.8742535,3.70377185 34.9715187,3.87664827 C35.0529888,4.06386078 35.1178323,4.2350506 35.1178323,4.42985281 C35.0529888,4.6567004 35.0671213,4.78572524 34.9681934,4.93751917 C34.8534703,5.10027599 34.7212893,5.20990494 34.5267588,5.30013799 C34.7736629,5.39037105 34.9914706,5.48229071 35.16023,5.66865992 C35.3206761,5.90141061 35.4162787,6.08356332 35.4162787,6.36016559 C35.3905076,6.7674793 35.284929,7.05757436 35.0238923,7.31899724 C34.7296026,7.64113769 34.4336501,7.71113155 34.0329505,7.71113155 C33.6239376,7.71113155 33.3745394,7.59897271 33.1367799,7.37465501 C32.8707552,7.1908157 32.7618514,6.85686906 32.727767,6.49846673" id="Fill-14" fill="#FFFFFF"></path>
                    <line x1="22.3532209" y1="14.9972401" x2="22.3532209" y2="7.10395584" id="Stroke-16" stroke="#FFFFFF" stroke-width="0.6" stroke-linecap="round"></line>
                    <line x1="32.3291457" y1="32.5032965" x2="42.2053112" y2="38.2723091" id="Stroke-18" stroke="#FFFFFF" stroke-width="0.6" stroke-linecap="round"></line>
                    <line x1="42.2054774" y1="49.9098436" x2="42.2054774" y2="38.2723091" id="Stroke-20" stroke="#FFFFFF" stroke-width="0.6" stroke-linecap="round"></line>
                    <line x1="44.3004216" y1="48.492257" x2="44.3004216" y2="39.7902484" id="Stroke-22" stroke="#FFFFFF" stroke-width="0.6" stroke-linecap="round"></line>
                    <path d="M30.5155225,55.391291 C30.4681369,56.0423183 30.6925952,56.5103496 31.0484032,56.8704385 C31.3867533,57.2549831 31.8481398,57.4101503 32.3826831,57.4101503 C32.883142,57.465808 33.376119,57.2288408 33.726939,56.8636921 C34.0686144,56.5263723 34.253169,55.9841306 34.253169,55.3187672 C34.207446,54.9451855 34.1766869,54.5269089 34.0262167,54.2115149 C33.8375055,53.9652714 33.6562762,53.6540938 33.3669744,53.4803741 C33.0494074,53.3370132 32.750961,53.2206378 32.392659,53.2206378 C31.830682,53.266176 31.4374643,53.3876112 31.0675237,53.7207145 C30.6759687,54.0723704 30.5155225,54.6095523 30.5155225,55.391291 M29.7299185,55.3879178 C29.6675689,54.4855872 29.9768226,53.7325207 30.4697996,53.207145 C30.9345114,52.7332107 31.6053923,52.4195032 32.3893337,52.4195032 C32.8523829,52.4523919 33.3611551,52.5443116 33.772662,52.7922416 C34.1625544,53.0873965 34.5009045,53.3817081 34.7178808,53.8235971 C34.8716764,54.3203005 35.0420984,54.7655627 35.0420984,55.3255136 C35.010508,55.9394358 34.9273753,56.399034 34.697929,56.8468261 C34.4152778,57.3275069 34.1475905,57.634468 33.7302643,57.865532 C33.3046248,58.1379178 32.8665155,58.2079117 32.3860084,58.2079117 C31.8173807,58.2079117 31.3967292,58.0805734 30.9827283,57.825897 C30.5072093,57.6277216 30.2594738,57.2246243 30.0483167,56.784422 C29.8055692,56.3981907 29.7299185,55.8804048 29.7299185,55.3879178" id="Fill-24" fill="#FFFFFF"></path>
                    <line x1="36.5191172" y1="53.350506" x2="42.2053943" y2="49.9098436" id="Stroke-26" stroke="#FFFFFF" stroke-width="0.6" stroke-linecap="round"></line>
                    <line x1="22.3532209" y1="49.9098436" x2="27.640461" y2="53.0469181" id="Stroke-28" stroke="#FFFFFF" stroke-width="0.6" stroke-linecap="round"></line>
                    <line x1="22.3532209" y1="38.2723091" x2="22.3532209" y2="49.9098436" id="Stroke-30" stroke="#FFFFFF" stroke-width="0.6" stroke-linecap="round"></line>
                    <path d="M14.2072133,56.0895431 L14.9928173,56.2607329 C14.8016121,56.9100736 14.5613586,57.3764183 14.158165,57.7103649 C13.7208869,58.0679239 13.2694763,58.2079117 12.694198,58.2079117 C12.0582328,58.2079117 11.6026656,58.0856332 11.2260744,57.8419197 C10.8220495,57.6479607 10.5651694,57.240647 10.3689762,56.7751457 C10.1528312,56.3653021 10.0763491,55.8087243 10.0763491,55.2723858 C10.0148309,54.7537565 10.1844216,54.1803128 10.401398,53.7477001 C10.5867839,53.3260503 10.9259653,52.9853573 11.326665,52.759353 C11.6641838,52.5932229 12.1663053,52.4195032 12.6451497,52.4195032 C13.1730424,52.4523919 13.6493928,52.5712971 14.0218273,52.874885 C14.333575,53.1961822 14.6528046,53.5984361 14.7982868,54.1423643 L14.0126827,54.3009046 C13.8339474,53.9635848 13.7142363,53.6515639 13.4831274,53.4803741 C13.2312353,53.3370132 12.9602227,53.2206378 12.6094026,53.2206378 C12.2012211,53.266176 11.8703529,53.3159307 11.5993403,53.5073597 C11.3141951,53.7198712 11.1387851,53.9551518 11.0282186,54.2781355 C10.8852303,54.6432843 10.8627845,54.9291628 10.8627845,55.2690126 C10.8153988,55.7792088 10.9292906,56.0996627 11.0639656,56.4285495 C11.1529176,56.7869519 11.408135,57.0019933 11.6941115,57.1664367 C11.9327024,57.3958142 12.2876791,57.4101503 12.6193786,57.4101503 C13.0109336,57.465808 13.3592597,57.3005213 13.6385855,57.0778902 C13.9179114,56.8822447 14.109948,56.5272156 14.2072133,56.0895431" id="Fill-32" fill="#FFFFFF"></path>
                    <polygon id="Fill-34" fill="#FFFFFF" points="0 58.2079117 0 52.4195032 0.785604075 52.4195032 0.785604075 54.617142 3.73764648 54.617142 3.73764648 52.4195032 4.52325056 52.4195032 4.52325056 58.2079117 3.73764648 58.2079117 3.73764648 55.4140601 0.785604075 55.4140601 0.785604075 58.2079117"></polygon>
                    <path d="M5.99220548,58.9188132 L6.58992964,58.9188132 C6.61985741,59.1869825 6.717954,59.2890218 6.82020723,59.382628 C6.89253269,59.5167127 7.08706322,59.5243024 7.31734082,59.5243024 C7.52517258,59.5867065 7.7745707,59.4467188 7.89843844,59.2907084 C7.97990849,59.2038485 8.08382437,58.9415823 8.08382437,58.7105182 C8.04890863,58.5452315 8.01565555,58.3124808 7.87848659,58.1674333 C7.70723321,58.0443116 7.56757026,57.949862 7.35641319,57.949862 C7.26912385,57.9743177 7.16188266,57.9701012 7.03468962,58.008893 L7.08290659,57.5543545 C7.06544872,57.5729071 7.13611152,57.5577277 7.1510754,57.5577277 C7.31235286,57.5729071 7.46032907,57.507973 7.59001609,57.4067771 C7.71055852,57.3688286 7.78454663,57.1445109 7.78454663,56.9286262 C7.77955867,56.7734591 7.7313417,56.6208218 7.62576316,56.5103496 C7.49857012,56.4108402 7.38301566,56.342533 7.21675024,56.342533 C7.02637635,56.4108402 6.91082188,56.3813247 6.80108671,56.458065 C6.66724305,56.5626342 6.61985741,56.6452775 6.58992964,56.7970715 L5.99220548,56.7970715 C6.02213325,56.5187826 6.19006132,56.2008586 6.4045437,56.016176 C6.58992964,55.8660687 6.88505074,55.7362006 7.20344901,55.7362006 C7.40296751,55.7952315 7.6241005,55.7876418 7.81114909,55.8879945 C7.9832338,55.9959368 8.13869196,56.1232751 8.23595722,56.2961515 C8.31742728,56.483364 8.38227079,56.6545538 8.38227079,56.849356 C8.31742728,57.0762036 8.33155984,57.2052285 8.23263191,57.3570224 C8.11790878,57.5197792 7.98572778,57.6294082 7.79119724,57.7196412 C8.03810138,57.8098743 8.25590907,57.9017939 8.42466847,58.0881631 C8.58511459,58.3217571 8.6807172,58.5030665 8.6807172,58.7796688 C8.65494606,59.1869825 8.54936753,59.4779209 8.28833083,59.7385005 C7.99404105,60.0606409 7.69808861,60.1306348 7.29738897,60.1306348 C6.88837605,60.1306348 6.63897793,60.0184759 6.40121839,59.7950015 C6.13519373,59.6103189 6.02628989,59.2763723 5.99220548,58.9188132" id="Fill-36" fill="#FFFFFF"></path>
                    <line x1="22.3532209" y1="49.9098436" x2="16.1689789" y2="53.5520546" id="Stroke-38" stroke="#FFFFFF" stroke-width="0.6" stroke-linecap="round"></line>
                    <path d="M24.084127,61.9589083 L24.869731,62.1300981 C24.6785258,62.7794388 24.4382723,63.2457835 24.0350787,63.5797301 C23.5978006,63.9372892 23.14639,64.0772769 22.5711117,64.0772769 C21.9351465,64.0772769 21.4795793,63.9549985 21.1029881,63.7112849 C20.6989632,63.517326 20.4420831,63.1100123 20.2458899,62.6445109 C20.0297449,62.2346673 19.9532628,61.6780895 19.9532628,61.141751 C19.8917446,60.6231217 20.0613353,60.049678 20.2783117,59.6170653 C20.4636976,59.1954155 20.8028791,58.8547225 21.2035787,58.6287182 C21.5410975,58.4625882 22.043219,58.2888684 22.5220634,58.2888684 C23.0499561,58.3217571 23.5263065,58.4406624 23.898741,58.7442502 C24.2104887,59.0655474 24.5297183,59.4678013 24.6752005,60.0117295 L23.8895964,60.1702699 C23.7108611,59.83295 23.59115,59.5209292 23.3600411,59.3497393 C23.108149,59.2063784 22.8371364,59.0900031 22.4863164,59.0900031 C22.0781348,59.1355412 21.7464353,59.1852959 21.476254,59.3767249 C21.1911088,59.5883931 21.0156988,59.824517 20.9051323,60.1475008 C20.762144,60.5126495 20.7396982,60.7985281 20.7396982,61.1383778 C20.6923126,61.6485741 20.8062044,61.9690279 20.9408793,62.2979148 C21.0298313,62.6563171 21.2850487,62.8713585 21.5710253,63.0358019 C21.8096161,63.2651794 22.1645928,63.2795155 22.4962923,63.2795155 C22.8878473,63.3351733 23.2361734,63.1698865 23.5154993,62.9472554 C23.7948252,62.7507666 23.9868617,62.3965808 24.084127,61.9589083" id="Fill-40" fill="#FFFFFF"></path>
                    <polygon id="Fill-42" fill="#FFFFFF" points="26.7355615 64.0772769 26.7355615 58.2888684 27.5211656 58.2888684 27.5211656 60.4865072 30.473208 60.4865072 30.473208 58.2888684 31.2588121 58.2888684 31.2588121 64.0772769 30.473208 64.0772769 30.473208 61.2834253 27.5211656 61.2834253 27.5211656 64.0772769"></polygon>
                    <path d="M32.727767,64.7881785 L33.3254911,64.7881785 C33.3554189,65.0563477 33.4535155,65.158387 33.5557687,65.2519933 C33.6280942,65.3852346 33.8226247,65.3936676 34.0529023,65.3936676 C34.2607341,65.4552285 34.5109635,65.316084 34.6339999,65.1600736 C34.71547,65.0732137 34.8193859,64.8109476 34.8193859,64.5798835 C34.7844701,64.4145967 34.7512171,64.1818461 34.6148794,64.0367985 C34.4427947,63.9136768 34.3031318,63.8192272 34.0919747,63.8192272 C34.0046854,63.8436829 33.8974442,63.8394664 33.7702511,63.8782582 L33.8184681,63.4237197 C33.8010102,63.4422723 33.871673,63.4270929 33.8874682,63.4270929 C34.0479144,63.4422723 34.1958906,63.3773382 34.3255776,63.2761423 C34.44612,63.2381938 34.5201081,63.0138761 34.5201081,62.7979914 C34.5151202,62.6428243 34.4669032,62.4901871 34.3613247,62.3797148 C34.2341316,62.2802055 34.1185772,62.2118982 33.9523118,62.2118982 C33.7619379,62.2802055 33.6463834,62.25069 33.5366482,62.3274302 C33.4028046,62.4319994 33.3554189,62.5146427 33.3254911,62.6664367 L32.727767,62.6664367 C32.7576948,62.3881478 32.9256228,62.0702239 33.1401052,61.8855412 C33.3254911,61.7354339 33.6206123,61.6055658 33.9390105,61.6055658 C34.138529,61.6645967 34.359662,61.6570071 34.5467106,61.7573597 C34.7187953,61.8653021 34.8742535,61.9926403 34.9715187,62.1655167 C35.0529888,62.3527292 35.1178323,62.523919 35.1178323,62.7187213 C35.0529888,62.9455688 35.0671213,63.0745937 34.9681934,63.2263876 C34.8534703,63.3891444 34.7212893,63.4987734 34.5267588,63.5890064 C34.7736629,63.6792395 34.9914706,63.7711592 35.16023,63.9575284 C35.3206761,64.1902791 35.4162787,64.3724318 35.4162787,64.649034 C35.3905076,65.0563477 35.284929,65.3472861 35.0238923,65.6078657 C34.7296026,65.9300061 34.4336501,66 34.0329505,66 C33.6239376,66 33.3745394,65.8878412 33.1367799,65.6643668 C32.8707552,65.4796841 32.7618514,65.1457375 32.727767,64.7881785" id="Fill-44" fill="#FFFFFF"></path>
                    <line x1="22.3532209" y1="49.9098436" x2="22.3532209" y2="55.8804048" id="Stroke-46" stroke="#FFFFFF" stroke-width="0.6" stroke-linecap="round"></line>
                    <line x1="42.2054774" y1="49.9098436" x2="52.2811615" y2="55.7792088" id="Stroke-48" stroke="#FFFFFF" stroke-width="0.6" stroke-linecap="round"></line>
                    <line x1="52.2811615" y1="55.7792088" x2="62.157327" y2="49.9098436" id="Stroke-50" stroke="#FFFFFF" stroke-width="0.6" stroke-linecap="round"></line>
                    <line x1="52.48068" y1="53.24931" x2="59.8628643" y2="48.7966881" id="Stroke-52" stroke="#FFFFFF" stroke-width="0.6" stroke-linecap="round"></line>
                    <line x1="62.157327" y1="49.9098436" x2="62.157327" y2="38.2723091" id="Stroke-54" stroke="#FFFFFF" stroke-width="0.6" stroke-linecap="round"></line>
                    <line x1="62.157327" y1="38.2723091" x2="52.1814022" y2="32.5032965" id="Stroke-56" stroke="#FFFFFF" stroke-width="0.6" stroke-linecap="round"></line>
                    <line x1="59.8628643" y1="39.3846213" x2="52.3809207" y2="35.0331953" id="Stroke-58" stroke="#FFFFFF" stroke-width="0.6" stroke-linecap="round"></line>
                    <line x1="42.2054774" y1="38.2723091" x2="52.1814022" y2="32.5032965" id="Stroke-60" stroke="#FFFFFF" stroke-width="0.6" stroke-linecap="round"></line>
                    <path d="M50.3674466,20.4786875 C50.3200609,21.1297148 50.5445192,21.5977461 50.9003272,21.9569917 C51.2386773,22.3415363 51.7000638,22.4975468 52.2346071,22.4975468 C52.735066,22.5523612 53.228043,22.3153941 53.578863,21.9510886 C53.9205384,21.6129255 54.105093,21.0715271 54.105093,20.4061638 C54.0593701,20.0317387 54.028611,19.6134621 53.8781408,19.2989114 C53.6894295,19.0518246 53.5082002,18.7414903 53.2188984,18.5677706 C52.9013315,18.4244097 52.6037164,18.307191 52.2445831,18.307191 C51.682606,18.3535725 51.2893883,18.4750077 50.9194477,18.808111 C50.5278927,19.1597669 50.3674466,19.6969488 50.3674466,20.4786875 M49.5818425,20.4753143 C49.5203243,19.5721404 49.8287466,18.8199172 50.3217236,18.2945416 C50.7864354,17.8197639 51.4573163,17.5068997 52.2412578,17.5068997 C52.7043069,17.5389451 53.2130791,17.6317081 53.624586,17.8796381 C54.0144784,18.1739497 54.3528285,18.4691046 54.5698049,18.9101503 C54.7236004,19.407697 54.8940224,19.8521159 54.8940224,20.4120669 C54.862432,21.0268323 54.7792993,21.4864305 54.549853,21.9342226 C54.2672018,22.4140601 53.9995145,22.7218645 53.5821883,22.9520852 C53.1573802,23.224471 52.7184395,23.2944649 52.2379325,23.2944649 C51.6693047,23.2944649 51.2486533,23.1679699 50.8354837,22.9124502 C50.3591333,22.7151181 50.1113978,22.3111776 49.9002408,21.8718185 C49.6583246,21.4855872 49.5818425,20.9678013 49.5818425,20.4753143" id="Fill-62" fill="#FFFFFF"></path>
                    <polygon id="Fill-64" fill="#FFFFFF" points="56.9623642 23.2944649 56.9623642 17.5068997 57.7479682 17.5068997 57.7479682 19.7045385 60.7000106 19.7045385 60.7000106 17.5068997 61.4856147 17.5068997 61.4856147 23.2944649 60.7000106 23.2944649 60.7000106 20.5014566 57.7479682 20.5014566 57.7479682 23.2944649"></polygon>
                    <line x1="52.1814022" y1="32.5032965" x2="52.1814022" y2="24.7120515" id="Stroke-66" stroke="#FFFFFF" stroke-width="0.6" stroke-linecap="round"></line>
                    <line x1="62.157327" y1="49.9098436" x2="72.1332518" y2="55.7792088" id="Stroke-68" stroke="#FFFFFF" stroke-width="0.6" stroke-linecap="round"></line>
                    <line x1="72.1332518" y1="55.7792088" x2="82.1091765" y2="49.9098436" id="Stroke-70" stroke="#FFFFFF" stroke-width="0.6" stroke-linecap="round"></line>
                    <line x1="82.1093428" y1="49.9098436" x2="91.9855083" y2="55.7792088" id="Stroke-72" stroke="#FFFFFF" stroke-width="0.6" stroke-linecap="round"></line>
                    <line x1="91.9855083" y1="55.7792088" x2="101.961433" y2="49.9098436" id="Stroke-74" stroke="#FFFFFF" stroke-width="0.6" stroke-linecap="round"></line>
                    <path d="M113.668181,56.0895431 L114.453785,56.2607329 C114.261748,56.9100736 114.021495,57.3764183 113.619132,57.7103649 C113.181854,58.0679239 112.730444,58.2079117 112.154334,58.2079117 C111.5192,58.2079117 111.063633,58.0856332 110.687042,57.8419197 C110.282186,57.6479607 110.026137,57.240647 109.829112,56.7751457 C109.613799,56.3653021 109.537317,55.8087243 109.537317,55.2723858 C109.475798,54.7537565 109.645389,54.1803128 109.862365,53.7477001 C110.04692,53.3260503 110.386102,52.9853573 110.787633,52.759353 C111.125151,52.5932229 111.627273,52.4195032 112.106117,52.4195032 C112.633179,52.4523919 113.11036,52.5712971 113.482795,52.874885 C113.794543,53.1961822 114.113772,53.5984361 114.259254,54.1423643 L113.472819,54.3009046 C113.294084,53.9635848 113.175204,53.6515639 112.944095,53.4803741 C112.692203,53.3370132 112.42119,53.2206378 112.07037,53.2206378 C111.662189,53.266176 111.330489,53.3159307 111.060308,53.5073597 C110.774331,53.7198712 110.598921,53.9551518 110.488355,54.2781355 C110.346198,54.6432843 110.322921,54.9291628 110.322921,55.2690126 C110.276366,55.7792088 110.389427,56.0996627 110.524102,56.4285495 C110.613885,56.7869519 110.868271,57.0019933 111.154248,57.1664367 C111.392839,57.3958142 111.748647,57.4101503 112.079515,57.4101503 C112.47107,57.465808 112.820227,57.3005213 113.099553,57.0778902 C113.378879,56.8822447 113.570084,56.5272156 113.668181,56.0895431" id="Fill-76" fill="#FFFFFF"></path>
                    <polygon id="Fill-78" fill="#FFFFFF" points="116.319283 58.2079117 116.319283 52.4195032 117.104887 52.4195032 117.104887 54.617142 120.056929 54.617142 120.056929 52.4195032 120.842533 52.4195032 120.842533 58.2079117 120.056929 58.2079117 120.056929 55.4140601 117.104887 55.4140601 117.104887 58.2079117"></polygon>
                    <g id="Group-82" transform="translate(122.311488, 55.736201)">
                        <mask id="mask-d8p4nm7rrs-6" fill="white">
                            <use xlink:href="#path-d8p4nm7rrs-5"></use>
                        </mask>
                        <g id="Clip-81"></g>
                        <path d="M0,3.1826127 L0.597724159,3.1826127 C0.627651933,3.45078197 0.725748527,3.55282122 0.828001756,3.64642748 C0.90032721,3.78051211 1.09485774,3.78810181 1.32513534,3.78810181 C1.53296711,3.85050598 1.78319655,3.71051825 1.90623296,3.55450782 C1.98770301,3.46764796 2.09161889,3.20538178 2.09161889,2.97431769 C2.05670316,2.80903097 2.02345007,2.57628028 1.88711244,2.43123275 C1.71502773,2.30811101 1.57619611,2.21366145 1.36420771,2.21366145 C1.27691837,2.23811714 1.16967718,2.23390064 1.04248414,2.27269243 L1.09153244,1.81815394 C1.07324324,1.83670653 1.14390604,1.82152714 1.15970125,1.82152714 C1.32014738,1.83670653 1.4681236,1.77177246 1.59781062,1.67057651 C1.71835304,1.63262803 1.79234115,1.40831033 1.79234115,1.19242564 C1.78735319,1.03725851 1.73913622,0.884621282 1.63355768,0.774149034 C1.50719597,0.674639681 1.39081018,0.606332413 1.22454477,0.606332413 C1.03417087,0.674639681 0.919447733,0.645124195 0.808881233,0.721864459 C0.675868903,0.826433609 0.627651933,0.90907697 0.597724159,1.0608709 L0,1.0608709 C0.0299277743,0.78258203 0.197855841,0.46465808 0.412338224,0.279975468 C0.597724159,0.129868139 0.892845267,0 1.21124353,0 C1.41076203,0.0590309721 1.63189503,0.0514412757 1.81894362,0.151793928 C1.99185965,0.259736277 2.14648648,0.387074517 2.24375175,0.559950935 C2.3252218,0.747163447 2.39006531,0.918353266 2.39006531,1.11315547 C2.3252218,1.34000307 2.34018569,1.46902791 2.24042644,1.62082183 C2.1257033,1.78357866 1.99435363,1.89320761 1.79899177,1.98344066 C2.0458959,2.07367372 2.2637036,2.16559338 2.43246299,2.35196259 C2.59290911,2.58555658 2.68851173,2.76686599 2.68851173,3.04346826 C2.66274059,3.45078197 2.55716205,3.74172033 2.29612535,4.00229991 C2.00183557,4.32444036 1.70588314,4.39443422 1.30518349,4.39443422 C0.896170575,4.39443422 0.646772456,4.28227538 0.409012915,4.05880098 C0.142988255,3.87411837 0.0340844096,3.54017173 0,3.1826127" id="Fill-80" fill="#FFFFFF" mask="url(#mask-d8p4nm7rrs-6)"></path>
                    </g>
                    <line x1="101.961433" y1="49.9098436" x2="107.448192" y2="53.1481141" id="Stroke-83" stroke="#FFFFFF" stroke-width="0.6" stroke-linecap="round"></line>
                    <polygon id="Fill-85" fill="#FFFFFF" points="38.3075511 26.6339313 38.3075511 20.8463661 39.0931552 20.8463661 39.0931552 23.0440049 42.0451976 23.0440049 42.0451976 20.8463661 42.831633 20.8463661 42.831633 26.6339313 42.0451976 26.6339313 42.0451976 23.840923 39.0931552 23.840923 39.0931552 26.6339313"></polygon>
                    <line x1="33.4267468" y1="30.7829653" x2="33.925543" y2="31.2897884" id="Stroke-87" stroke="#FFFFFF" stroke-width="0.6" stroke-linecap="round"></line>
                    <line x1="34.6234421" y1="29.1638301" x2="35.6210346" y2="30.0745937" id="Stroke-89" stroke="#FFFFFF" stroke-width="0.6" stroke-linecap="round"></line>
                    <line x1="35.8208856" y1="27.4434989" x2="37.2175151" y2="28.8610856" id="Stroke-91" stroke="#FFFFFF" stroke-width="0.6" stroke-linecap="round"></line>
                    <polygon id="Fill-93" fill="#FFFFFF" points="12.0704533 48.99908 12.0704533 43.2115149 12.8560574 43.2115149 12.8560574 45.4083103 15.8080998 45.4083103 15.8080998 43.2115149 16.5937039 43.2115149 16.5937039 48.99908 15.8080998 48.99908 15.8080998 46.2052285 12.8560574 46.2052285 12.8560574 48.99908"></polygon>
                    <polyline id="Fill-95" fill="#FFFFFF" points="22.1535361 38.0699172 22.5525731 38.4738577 18.762553 43.4324594 18.063407 42.7240877 17.265333 41.9145201"></polyline>
                </g>
            </g>
        </g>
    </g>
</svg>