
<svg width="16px" height="16px" viewBox="0 0 16 16" version="1.1" xmlns="http://www.w3.org/2000/svg" xmlns:xlink="http://www.w3.org/1999/xlink">
    <g id="Page-1" stroke="none" stroke-width="1" fill="none" fill-rule="evenodd">
        <g id="Artboard" transform="translate(-850.000000, -1388.000000)" fill="#FFFFFF">
            <g id="Group-27" transform="translate(320.000000, 754.000000)">
                <g id="Group-26" transform="translate(52.000000, 447.000000)">
                    <g id="Group-20-Copy-2" transform="translate(0.000000, 163.000000)">
                        <path d="M486,24 C490.418278,24 494,27.581722 494,32 C494,36.418278 490.418278,40 486,40 C481.581722,40 478,36.418278 478,32 C478,27.581722 481.581722,24 486,24 Z M490.512821,31.3333333 L481.487179,31.3333333 C481.03359,31.3333333 480.666667,31.7057292 480.666667,32.1664063 C480.666667,32.6270833 481.03359,33 481.487179,33 L481.487179,33 L490.512821,33 C490.966667,33 491.333333,32.6270833 491.333333,32.1664063 C491.333333,31.7057292 490.96641,31.3333333 490.512821,31.3333333 L490.512821,31.3333333 Z" id="Combined-Shape"></path>
                    </g>
                </g>
            </g>
        </g>
    </g>
</svg>