
<svg width="16px" height="16px" viewBox="0 0 16 16" version="1.1" xmlns="http://www.w3.org/2000/svg" xmlns:xlink="http://www.w3.org/1999/xlink">
    <g id="Page-1" stroke="none" stroke-width="1" fill="none" fill-rule="evenodd">
        <g id="Artboard" transform="translate(-850.000000, -2581.000000)" fill="#FFFFFF">
            <g id="Group-27" transform="translate(320.000000, 754.000000)">
                <g id="Group-26" transform="translate(52.000000, 447.000000)">
                    <g id="Group-20-Copy-2" transform="translate(0.000000, 1356.000000)">
                        <path d="M486,24 C490.418278,24 494,27.581722 494,32 C494,36.418278 490.418278,40 486,40 C481.581722,40 478,36.418278 478,32 C478,27.581722 481.581722,24 486,24 Z M486,26.6666667 C485.546923,26.6666667 485.179487,27.0338462 485.179487,27.4874359 L485.179487,27.4874359 L485.179487,31.1797436 L481.487179,31.1797436 C481.034103,31.1797436 480.666667,31.5464103 480.666667,32 C480.666667,32.4535897 481.034103,32.8207692 481.487179,32.8207692 L481.487179,32.8207692 L485.179487,32.8207692 L485.179487,36.5130769 C485.179487,36.9666667 485.546923,37.3333333 486,37.3333333 C486.453077,37.3333333 486.820513,36.9666667 486.820513,36.5130769 L486.820513,36.5130769 L486.820513,32.8207692 L490.512821,32.8207692 C490.965897,32.8207692 491.333333,32.4535897 491.333333,32 C491.333333,31.5461538 490.966667,31.1794872 490.512821,31.1797436 L490.512821,31.1797436 L486.820513,31.1797436 L486.820513,27.4874359 C486.820513,27.0338462 486.453077,26.6666667 486,26.6666667 Z" id="Combined-Shape"></path>
                    </g>
                </g>
            </g>
        </g>
    </g>
</svg>