
<svg width="16px" height="16px" viewBox="0 0 16 16" version="1.1" xmlns="http://www.w3.org/2000/svg" xmlns:xlink="http://www.w3.org/1999/xlink">
    <g id="Symbols" stroke="none" stroke-width="1" fill="none" fill-rule="evenodd">
        <g id="cellular" fill="#FFFFFF" fill-rule="nonzero">
            <path d="M15.9765116,12.0933225 L15.2498803,15.2431633 C15.1478082,15.6884533 14.7563962,16 14.2979153,16 C6.41310677,15.999375 0,9.58719923 0,1.70322284 C0,1.245121 0.311560728,0.853265811 0.756946618,0.751708445 L3.90724468,0.025182678 C4.36603809,-0.0811244472 4.83483244,0.156988514 5.02547548,0.59140405 L6.47936304,3.98185763 C6.64931662,4.38121244 6.53468077,4.84650141 6.19871148,5.12086254 L4.51605228,6.47173174 C5.57802776,8.63474738 7.33694418,10.3934085 9.50089892,11.4558547 L10.8785293,9.77468975 C11.1500549,9.43783178 11.6189118,9.32127517 12.0183246,9.49423518 L15.4092704,10.9475992 C15.8171215,11.1621196 16.0827717,11.6370956 15.9765116,12.0933225 Z" id="Path"></path>
        </g>
    </g>
</svg>