
<svg width="16px" height="12px" viewBox="0 0 16 12" version="1.1" xmlns="http://www.w3.org/2000/svg" xmlns:xlink="http://www.w3.org/1999/xlink">
    <g id="Symbols" stroke="none" stroke-width="1" fill="none" fill-rule="evenodd">
        <g id="mail" fill="#FFFFFF" fill-rule="nonzero">
            <path d="M8,8.72727273 C7.4834375,8.72727273 6.966875,8.5629697 6.52625,8.23 L0,3.30909091 L0,10.1818182 C0,10.9848485 0.6715625,11.6363636 1.5,11.6363636 L14.5,11.6363636 C15.3284375,11.6363636 16,10.9851515 16,10.1818182 L16,3.30909091 L9.475,8.23333333 C9.034375,8.56363636 8.515625,8.72727273 8,8.72727273 Z M0.5090625,2.46363636 L7.1403125,7.46666667 C7.64625,7.84848485 8.355,7.84848485 8.8609375,7.46666667 L15.4921875,2.46363636 C15.784375,2.22121212 16,1.84848485 16,1.45454545 C16,0.651212121 15.328125,0 14.5,0 L1.5,0 C0.6715625,0 0,0.651212121 0,1.45454545 C0,1.84848485 0.1878125,2.22121212 0.5090625,2.46363636 Z"></path>
        </g>
    </g>
</svg>