
<svg width="16px" height="14px" viewBox="0 0 16 14" version="1.1" xmlns="http://www.w3.org/2000/svg" xmlns:xlink="http://www.w3.org/1999/xlink">
    <g id="Symbols" stroke="none" stroke-width="1" fill="none" fill-rule="evenodd">
        <g id="Telegram" transform="translate(0.000000, 0.636364)" fill="#FFFFFF" fill-rule="nonzero">
            <path d="M15.9937622,1.13612482 C15.7720452,3.4360498 14.8126378,9.01727538 14.3243495,11.5932617 C14.1178413,12.6831969 13.7111225,13.0486981 13.3174737,13.0844154 C12.461974,13.1621842 11.8121506,12.5262518 10.9834446,11.9899643 C9.68670891,11.1508128 8.95412781,10.6284252 7.69535493,9.80956625 C6.24070825,8.8632628 7.18371853,8.34333841 8.01272159,7.49292627 C8.22968584,7.27047018 11.9995288,3.8854193 12.0724839,3.57833255 C12.0815736,3.53991738 12.0903068,3.39652029 12.0039251,3.32121483 C11.9175434,3.24590937 11.7906443,3.27142174 11.6988563,3.29189028 C11.5688282,3.32105844 9.49725135,4.6727641 5.48412563,7.34700727 C4.89616756,7.74558665 4.36357934,7.93979341 3.88636097,7.92962757 C3.36028801,7.91842559 2.34836247,7.63603011 1.59605735,7.39457171 C0.673365187,7.09851098 -0.0599882376,6.9419765 0.00387719762,6.439119 C0.0371466336,6.17715296 0.402516333,5.90932201 1.09998629,5.63562615 C5.39514969,3.78825727 8.25925207,2.57031068 9.69229342,1.98178638 C13.7839588,0.30166523 14.6341711,0.00982724173 15.1883448,0 C15.3102536,-0.00190258095 15.5827659,0.0278911687 15.7592721,0.169294181 C15.8766863,0.270023407 15.951527,0.410588745 15.9689884,0.563181627 C15.9988993,0.752649597 16.007209,0.944829772 15.9937622,1.13612482 Z"></path>
        </g>
    </g>
</svg>