
<svg width="16px" height="14px" viewBox="0 0 16 14" version="1.1" xmlns="http://www.w3.org/2000/svg" xmlns:xlink="http://www.w3.org/1999/xlink">
    <g id="Symbols" stroke="none" stroke-width="1" fill="none" fill-rule="evenodd">
        <g id="Twitter" transform="translate(0.000000, 0.927273)" fill="#FFFFFF" fill-rule="nonzero">
            <path d="M14.3553686,3.18998838 C14.3655249,3.3299817 14.3655249,3.4700058 14.3655249,3.60999911 C14.3655249,7.8799799 11.0660432,12.8 5.03555092,12.8 C3.17766866,12.8 1.45178692,12.2699769 0,11.3500165 C0.263969781,11.3799975 0.517752022,11.3900014 0.791878093,11.3900014 C2.32485283,11.3900014 3.73604584,10.8800169 4.8629565,10.0100145 C3.42132586,9.98000274 2.21319615,9.05000758 1.79694452,7.76999834 C2,7.79997932 2.20303986,7.81998716 2.41625944,7.81998716 C2.71066684,7.81998716 3.00510549,7.77997148 3.27920031,7.7100056 C1.77666319,7.40998035 0.649721288,6.10999406 0.649721288,4.53999428 L0.649721288,4.5 C1.08625424,4.74001111 1.59391248,4.89000834 2.13194583,4.9099854 C1.24869238,4.32997352 0.670033867,3.33998562 0.670033867,2.21997754 C0.670033867,1.6199886 0.832440752,1.06998848 1.11672311,0.589985018 C2.73094817,2.54998377 5.1573639,3.82996222 7.87815577,3.96998632 C7.82740558,3.72998459 7.79693671,3.48000972 7.79693671,3.23000406 C7.79693671,1.44998353 9.25887992,0 11.076137,0 C12.020297,0 12.8730815,0.389998966 13.4720839,1.01999966 C14.2131805,0.880006349 14.9238395,0.609992858 15.5533108,0.240001731 C15.3096223,0.990018685 14.7918703,1.62001938 14.1116801,2.01999149 C14.771589,1.95002561 15.4111852,1.76998584 16,1.52001097 C15.5533733,2.1599848 14.9949648,2.72996198 14.3553686,3.18998838 Z"></path>
        </g>
    </g>
</svg>