
<svg width="20px" height="20px" viewBox="0 0 20 20" version="1.1" xmlns="http://www.w3.org/2000/svg" xmlns:xlink="http://www.w3.org/1999/xlink">
    <g id="Symbols" stroke="none" stroke-width="1" fill="none" fill-rule="evenodd">
        <g id="viber" fill="#FFFFFF" fill-rule="nonzero">
            <g id="Shape">
                <path d="M16.8789935,1.947501 C16.3814121,1.49052717 14.3675789,0.0336790085 9.87759271,0.0141502127 C9.87759271,0.0141502127 4.58442405,-0.302216279 2.00640408,2.05686225 C0.572429445,3.4863701 0.0670121557,5.58376277 0.012160667,8.18109261 C-0.0426908218,10.7784224 -0.109296201,15.6449984 4.59617794,16.965145 L4.6000959,16.965145 L4.59617794,18.9805167 C4.59617794,18.9805167 4.56483423,19.7968203 5.10551319,19.9608622 C5.75589513,20.1639617 6.13985555,19.542946 6.76281174,18.8750612 C7.10367457,18.5079198 7.57383018,17.9689251 7.93036486,17.5588203 C11.1509308,17.8283177 13.6231658,17.2112078 13.9052592,17.1213753 C14.5556411,16.9104643 18.2346088,16.4417732 18.8301393,11.5751973 C19.4491775,6.55239104 18.532374,3.38091461 16.8789935,1.947501 Z M17.4235904,11.208056 C16.9181731,15.2700455 13.9366029,15.5278256 13.388088,15.7035847 C13.1530102,15.7777942 10.9785404,16.3167889 8.2477199,16.1410298 C8.2477199,16.1410298 6.21037889,18.5899408 5.57566881,19.2265795 C5.36801674,19.4335847 5.14077486,19.4140559 5.14469283,19.0039512 C5.14469283,18.7344539 5.16036468,15.6567156 5.16036468,15.6567156 C5.15644672,15.6567156 5.15644672,15.6567156 5.16036468,15.6567156 C1.17187786,14.5552916 1.40695567,10.4112811 1.45005326,8.24358476 C1.49315086,6.07588842 1.90453703,4.29876801 3.11910571,3.10360571 C5.30141137,1.13119733 9.79531548,1.42412927 9.79531548,1.42412927 C13.5918221,1.43975231 15.4097571,2.58023398 15.8328972,2.96299838 C17.2316102,4.15816068 17.9446795,7.01717638 17.4235904,11.208056 L17.4235904,11.208056 Z M11.9776211,8.05220256 C11.993293,8.38809785 11.4878757,8.4115324 11.4722038,8.07563711 C11.4291062,7.2163701 11.025556,6.79845387 10.1949478,6.75158476 C9.85800289,6.73205596 9.8893466,6.22821303 10.2223735,6.24774183 C11.3154853,6.30632821 11.9227696,6.93124968 11.9776211,8.05220256 Z M12.7729677,8.49355334 C12.8121474,6.83751146 11.773887,5.54079942 9.8031514,5.39628633 C9.47012451,5.37285178 9.50538618,4.86900884 9.83841308,4.8924434 C12.1108319,5.05648528 13.3214826,6.61488319 13.278385,8.50527062 C13.274467,8.84116591 12.7651318,8.82554287 12.7729677,8.49355334 L12.7729677,8.49355334 Z M14.614433,9.01692507 C14.6183285,9.35282036 14.1089933,9.35672612 14.1089933,9.02083083 C14.0854855,5.83763712 11.9580313,4.10348005 9.37609339,4.08395125 C9.04306649,4.0800455 9.04306649,3.58010832 9.37609339,3.58010832 C12.2636325,3.59963712 14.5869848,5.58766853 14.614433,9.01692507 L14.614433,9.01692507 Z M14.1716807,12.8484748 L14.1716807,12.8562863 C13.7485406,13.5983806 12.957112,14.41859 12.1421756,14.1569041 L12.1343397,14.1451868 C11.3076494,13.9147471 9.36042153,12.9148727 8.130181,11.9384329 C7.49547091,11.4384957 6.91561232,10.8487261 6.46896448,10.282391 C6.06541424,9.77854811 5.65794604,9.18096695 5.26223173,8.46230727 C4.42770551,6.95858999 4.24356123,6.28679942 4.24356123,6.28679942 C3.98105767,5.47440151 4.79991204,4.68543816 5.54824307,4.26361618 L5.55607899,4.26361618 C5.91653163,4.07613974 6.26131242,4.13863188 6.49247226,4.41594078 C6.49247226,4.41594078 6.97829974,4.99399314 7.1859518,5.27911356 C7.38184997,5.54470518 7.64435353,5.97043293 7.78148225,6.20868424 C8.02047802,6.63441198 7.87159541,7.06795125 7.6365176,7.24761617 L7.16636198,7.62256905 C6.92736621,7.81395125 6.95870992,8.16937533 6.95870992,8.16937533 C6.95870992,8.16937533 7.65610742,10.7979512 10.2615531,11.4619303 C10.2615531,11.4619303 10.6180878,11.4931764 10.810068,11.2549251 L11.1861925,10.786234 C11.3664188,10.5518884 11.8013128,10.4034696 12.2283708,10.6417209 C12.8043114,10.9658989 13.5369706,11.4697418 14.0227981,11.9267156 C14.2970555,12.1493439 14.3597429,12.489145 14.1716807,12.8484748 Z"></path>
            </g>
        </g>
    </g>
</svg>