
<svg width="20px" height="20px" viewBox="0 0 20 20" version="1.1" xmlns="http://www.w3.org/2000/svg" xmlns:xlink="http://www.w3.org/1999/xlink">
    <g id="Symbols" stroke="none" stroke-width="1" fill="none" fill-rule="evenodd">
        <g id="whatsapp" fill="#FFFFFF" fill-rule="nonzero">
            <g id="Shape">
                <path d="M17.0044643,2.90625 C15.1339286,1.03125 12.6428571,0 9.99553571,0 C4.53125,0 0.0848214286,4.44642857 0.0848214286,9.91071429 C0.0848214286,11.65625 0.540178571,13.3616071 1.40625,14.8660714 L0,20 L5.25446429,18.6205357 C6.70089286,19.4107143 8.33035714,19.8258929 9.99107143,19.8258929 L9.99553571,19.8258929 C15.4553571,19.8258929 20,15.3794643 20,9.91517857 C20,7.26785714 18.875,4.78125 17.0044643,2.90625 Z M9.99553571,18.15625 C8.51339286,18.15625 7.0625,17.7589286 5.79910714,17.0089286 L5.5,16.8303571 L2.38392857,17.6473214 L3.21428571,14.6071429 L3.01785714,14.2946429 C2.19196429,12.9821429 1.75892857,11.46875 1.75892857,9.91071429 C1.75892857,5.37053571 5.45535714,1.67410714 10,1.67410714 C12.2008929,1.67410714 14.2678571,2.53125 15.8214286,4.08928571 C17.375,5.64732143 18.3303571,7.71428571 18.3259084,9.91517857 C18.3259084,14.4598214 14.5357143,18.15625 9.99553571,18.15625 Z M14.5133929,11.9866071 C14.2678571,11.8616071 13.0491071,11.2633929 12.8214286,11.1830357 C12.59375,11.0982143 12.4285714,11.0580357 12.2633929,11.3080357 C12.0982143,11.5580357 11.625,12.1116071 11.4776786,12.28125 C11.3348214,12.4464286 11.1875,12.46875 10.9419643,12.34375 C9.48660714,11.6160714 8.53125,11.0446429 7.57142857,9.39732143 C7.31696429,8.95982143 7.82589286,8.99107143 8.29910714,8.04464286 C8.37946429,7.87946429 8.33928571,7.73660714 8.27678571,7.61160714 C8.21428571,7.48660714 7.71875,6.26785714 7.51339286,5.77232143 C7.3125,5.29017857 7.10714286,5.35714286 6.95535714,5.34821429 C6.8125,5.33928571 6.64732143,5.33928571 6.48214286,5.33928571 C6.31696429,5.33928571 6.04910714,5.40178571 5.82142857,5.64732143 C5.59375,5.89732143 4.95535714,6.49553571 4.95535714,7.71428571 C4.95535714,8.93303571 5.84375,10.1116071 5.96428571,10.2767857 C6.08928571,10.4419643 7.70982143,12.9419643 10.1964286,14.0178571 C11.7678571,14.6964286 12.3839286,14.7544643 13.1696429,14.6383929 C13.6473214,14.5669643 14.6339286,14.0401786 14.8392857,13.4598214 C15.0446429,12.8794643 15.0446429,12.3839286 14.9821429,12.28125 C14.9241071,12.1696429 14.7589286,12.1071429 14.5133929,11.9866071 Z"></path>
            </g>
        </g>
    </g>
</svg>