
<svg width="16px" height="12px" viewBox="0 0 16 12" version="1.1" xmlns="http://www.w3.org/2000/svg" xmlns:xlink="http://www.w3.org/1999/xlink">
    <g id="Symbols" stroke="none" stroke-width="1" fill="none" fill-rule="evenodd">
        <g id="YouTube" transform="translate(0.000000, 0.727273)" fill="#FFFFFF" fill-rule="nonzero">
            <path d="M15.6656645,1.75242083 C15.481651,1.06262917 14.9394837,0.519370833 14.2510959,0.335008333 C13.0033435,0 8,0 8,0 C8,0 2.9966858,0 1.74890412,0.335008333 C1.06051628,0.5194 0.518348977,1.06262917 0.334335529,1.75242083 C0,3.00270833 0,5.61131667 0,5.61131667 C0,5.61131667 0,8.219925 0.334335529,9.4702125 C0.518348977,10.1600042 1.06051628,10.6806292 1.74890412,10.8649917 C2.9966858,11.2 8,11.2 8,11.2 C8,11.2 13.0033142,11.2 14.2510959,10.8649917 C14.9394837,10.6806292 15.481651,10.1600042 15.6656645,9.4702125 C16,8.219925 16,5.61131667 16,5.61131667 C16,5.61131667 16,3.00270833 15.6656645,1.75242083 Z M6.36362504,7.9797375 L6.36362504,3.24289583 L10.5454266,5.611375 L6.36362504,7.9797375 Z"></path>
        </g>
    </g>
</svg>